<svg width="141.732" height="141.732" xmlns="http://www.w3.org/2000/svg">

 <g>
  <title>background</title>
  <rect fill="none" id="canvas_background" height="402" width="582" y="-1" x="-1"/>
 </g>
 <g>
  <title>Layer 1</title>
  <path stroke="null" fill="#4ccc93" id="svg_1" d="m111.831572,56.768997c0,-13.536873 -9.875134,-24.510358 -22.058476,-24.510358c-8.025298,0 -15.047434,4.762901 -18.906514,11.882843c-3.85908,-7.119942 -10.882384,-11.882843 -18.907682,-11.882843c-12.183342,0 -22.058476,10.973485 -22.058476,24.510358c0,7.043782 2.678992,13.389761 6.961409,17.860392l-0.005839,0l31.580343,33.577901c0.579242,0.773312 1.448104,1.266071 2.42207,1.266071c0.902145,0 1.714368,-0.425061 2.288938,-1.103988l31.733328,-33.739985l-0.009343,0c4.283001,-4.46998 6.960241,-10.815959 6.960241,-17.860392"/>
 </g>
</svg>