<svg width="32" height="32" xmlns="http://www.w3.org/2000/svg">

 <g>
  <title>background</title>
  <rect fill="none" id="canvas_background" height="402" width="582" y="-1" x="-1"/>
 </g>
 <g>
  <title>Layer 1</title>
  <path fill="#cdcdcd" id="svg_1" d="m29.9,18.1c-1.4,-1.4 -3.8,-1.4 -5.1,0l-0.8,0.8l-0.8,-0.8c-1.4,-1.4 -3.8,-1.4 -5.1,0c-1.4,1.4 -1.4,3.8 0,5.2l5.2,5.4c0.2,0.2 0.4,0.3 0.7,0.3s0.5,-0.1 0.7,-0.3l5.2,-5.4c1.4,-1.4 1.4,-3.8 0,-5.2z"/>
  <path fill="#cdcdcd" id="svg_2" d="m16.6,16.7c1,-1.1 2.5,-1.7 4,-1.7c1.2,0 2.4,0.4 3.4,1.1c1,-0.7 2.1,-1.1 3.4,-1.1c0.6,0 1.1,0.1 1.6,0.2l0,-6.2c0,-2.8 -2.2,-5 -5,-5l-16,0c-2.8,0 -5,2.2 -5,5l0,19c0,0.4 0.2,0.7 0.6,0.9c0.1,0.1 0.3,0.1 0.4,0.1c0.2,0 0.5,-0.1 0.7,-0.2c3.2,-2.7 7,-4.5 11.1,-5.3c-1.2,-2.2 -1,-5 0.8,-6.8zm-5.6,-5.7l6,0c0.6,0 1,0.4 1,1s-0.4,1 -1,1l-6,0c-0.6,0 -1,-0.4 -1,-1s0.4,-1 1,-1zm3,6l-3,0c-0.6,0 -1,-0.4 -1,-1s0.4,-1 1,-1l3,0c0.6,0 1,0.4 1,1s-0.4,1 -1,1z"/>
 </g>
</svg>